<svg xmlns="http://www.w3.org/2000/svg" width="32" height="32" viewBox="0 0 24 24" fill="none" stroke="currentColor" stroke-width="2" stroke-linecap="round" stroke-linejoin="round">
  <path d="M19.07 4.93A10 10 0 0 0 6.99 3.34"/>
  <path d="M4 6h.01"/>
  <path d="M2.29 9.62A10 10 0 0 0 2 12c0 2.5.94 4.78 2.48 6.52"/>
  <path d="M20 6h.01"/>
  <path d="M21.71 9.62A10 10 0 0 1 22 12c0-2.5-.94-4.78-2.48-6.52"/>
  <path d="M8.99 18.66A10 10 0 0 1 12 22a10 10 0 0 1-3.01-5.34"/>
  <path d="M12 12v10"/>
  <path d="m12 12-5.12 1.28"/>
</svg>